<?xml version="1.0" encoding="UTF-8"?>
<svg version="1.1" xmlns="http://www.w3.org/2000/svg" width="512" height="512">
<path d="M0 0 C1.15018936 -0.00679667 2.30037873 -0.01359334 3.48542231 -0.02059597 C6.67402204 -0.03629997 9.8623026 -0.03855107 13.05092871 -0.03501284 C16.49141741 -0.03440044 19.9318305 -0.05096075 23.37228394 -0.06518555 C30.11139793 -0.09009896 36.8504332 -0.09834979 43.58958939 -0.10002268 C49.0680556 -0.1014485 54.54649585 -0.10761443 60.02495384 -0.11712456 C75.56008398 -0.14354301 91.09515196 -0.15738293 106.63030473 -0.15513314 C107.46770868 -0.15501327 108.30511263 -0.1548934 109.16789246 -0.1547699 C110.42553352 -0.15458593 110.42553352 -0.15458593 111.70858147 -0.15439826 C125.29560489 -0.15317898 138.88237884 -0.18188497 152.46933011 -0.224185 C166.42293795 -0.26728345 180.37642415 -0.28799515 194.33010024 -0.28540367 C202.16300248 -0.28440797 209.99564322 -0.29263924 217.82848549 -0.32493782 C224.49783507 -0.35226265 231.16680463 -0.35877129 237.83618597 -0.33840955 C241.2379005 -0.32861786 244.6388861 -0.32842585 248.04053116 -0.3544693 C251.73185617 -0.37758695 255.42126577 -0.3637276 259.11254883 -0.34057617 C260.18308292 -0.35600686 261.25361701 -0.37143755 262.35659152 -0.38733584 C269.60145749 -0.28689698 273.51424776 1.42163073 278.74674988 6.40113831 C279.52235921 7.09369248 280.29796854 7.78624666 281.09708118 8.49978733 C281.73475265 9.13670474 282.37242411 9.77362215 283.02941895 10.42984009 C284.15008003 11.5420417 284.15008003 11.5420417 285.29338074 12.67671204 C286.08277039 13.47015015 286.87216003 14.26358826 287.68547058 15.08106995 C288.54013412 15.93222885 289.39479767 16.78338776 290.27536011 17.66033936 C292.59696524 19.97469738 294.91407319 22.29343664 297.22886682 24.61460423 C299.66143889 27.05227513 302.09892705 29.48502276 304.53561401 31.9185791 C308.62171861 36.00105738 312.70361549 40.08770706 316.78312683 44.17677307 C321.49303316 48.89758328 326.2101304 53.61111623 330.93098384 58.32097727 C334.99599731 62.37690587 339.05708941 66.4367299 343.11494702 70.49981779 C345.53351811 72.92149916 347.95340193 75.34182722 350.37684059 77.75863838 C353.07442881 80.45115115 355.7655289 83.14998556 358.45500183 85.8506012 C359.25451263 86.64606354 360.05402344 87.44152588 360.87776184 88.26109314 C361.61077011 88.99974106 362.34377838 89.73838898 363.09899902 90.49942017 C363.73478536 91.13596055 364.37057169 91.77250093 365.02562428 92.42833042 C368.99736188 96.98086002 370.12196267 100.24803251 370.12706661 106.3090353 C370.13172653 106.99510991 370.13638645 107.68118452 370.14118758 108.38804927 C370.15315935 110.69203973 370.14373409 112.99544286 370.13442993 115.29943848 C370.1386019 116.9659006 370.14407867 118.63235989 370.15074974 120.29881388 C370.16524102 124.88222567 370.16094816 129.46545822 370.15358293 134.04887998 C370.14886266 138.9903473 370.16135097 143.9317752 370.17160034 148.87322998 C370.188816 158.55544273 370.18962264 168.23759067 370.18438744 177.91981476 C370.18034972 185.78769126 370.18178455 193.65554857 370.1871357 201.52342415 C370.18788412 202.6422603 370.18863254 203.76109646 370.18940364 204.91383674 C370.19093508 207.18658268 370.19247343 209.45932863 370.19401861 211.73207457 C370.20775362 233.05608474 370.20229889 254.38005825 370.1908334 275.7040676 C370.18089952 295.22217616 370.19384261 314.74018996 370.21776759 334.25828391 C370.24213646 354.28908086 370.25177194 374.31983364 370.24511486 394.35064512 C370.24161778 405.60060193 370.24388696 416.85048582 370.26136589 428.10043144 C370.27606021 437.67709378 370.27675963 447.25363185 370.25929498 456.83029168 C370.25075982 461.71811575 370.24869664 466.60571757 370.26394653 471.49353027 C370.27772885 475.966263 370.27311415 480.43858174 370.2537073 484.91129012 C370.24992706 486.53102012 370.25292716 488.15078277 370.26331895 489.77048384 C370.27642919 491.96995733 370.26496102 494.16798931 370.24732113 496.36740017 C370.24721379 497.58966759 370.24710646 498.81193501 370.24699587 500.07124084 C369.48999649 505.11022236 367.3701868 508.12198668 363.3972587 511.25236851 C360.19431994 512.64056962 357.82826077 512.77826248 354.33860874 512.78145504 C353.03653054 512.78989498 351.73445233 512.79833492 350.39291722 512.80703062 C348.94970816 512.80123548 347.50650024 512.79515445 346.06329346 512.78881836 C344.52882463 512.7929908 342.99435889 512.79846782 341.45989889 512.80513817 C337.24133253 512.81962338 333.02296104 512.8153385 328.80438387 512.80797136 C324.25555679 512.80324959 319.70677246 512.81574073 315.15795898 512.82598877 C306.24577566 512.84320149 297.33366277 512.84401167 288.42146713 512.83877587 C281.17906689 512.83473759 273.9366875 512.83617364 266.69428825 512.84152412 C265.66426366 512.84227255 264.63423907 512.84302097 263.5730016 512.84379207 C261.48063966 512.84532352 259.38827771 512.84686186 257.29591578 512.84840704 C237.66582847 512.86214098 218.035781 512.85668807 198.4056946 512.84522182 C180.43954923 512.83528811 162.47350682 512.84823094 144.50737733 512.87215602 C126.06763698 512.89652713 107.62794463 512.90615981 89.18818849 512.89950329 C78.83249094 512.8960067 68.47687261 512.89827214 58.12118721 512.91575432 C49.30575551 512.93045144 40.4904588 512.93114438 31.67502982 512.91368341 C27.1760502 512.90515053 22.67731198 512.90307945 18.17834473 512.91833496 C14.06088067 512.93212417 9.94386613 512.92749376 5.82642847 512.90809572 C4.33590364 512.9043176 2.84534329 512.90730963 1.35484994 512.91770738 C-0.66982049 512.93082863 -2.69461218 512.9169397 -4.71926785 512.90170956 C-5.84432686 512.90160222 -6.96938588 512.90149488 -8.1285376 512.90138429 C-12.99123769 512.12289789 -15.9893575 509.92390794 -19.10448033 506.17072958 C-20.64188226 502.4641776 -20.66775384 499.03372695 -20.63356686 495.08767796 C-20.64055673 493.83063559 -20.64055673 493.83063559 -20.64768782 492.54819843 C-20.65968178 489.72733787 -20.65022544 486.90695506 -20.64093018 484.08609009 C-20.64510116 482.04839659 -20.65057738 480.01070542 -20.65724999 477.97301859 C-20.67175412 472.36347554 -20.66744438 466.75407879 -20.66008317 461.14452755 C-20.65536608 455.09875857 -20.66784839 449.05302191 -20.67810059 443.00726318 C-20.69432642 431.84458111 -20.69672797 420.68194456 -20.69179559 409.51925692 C-20.68724115 399.20698924 -20.68783418 388.89473897 -20.69363594 378.58247185 C-20.6943928 377.20002875 -20.69514878 375.81758566 -20.69590389 374.43514256 C-20.69704906 372.35201137 -20.69819894 370.26888018 -20.69936313 368.185749 C-20.71007064 348.81468095 -20.71479079 329.4436187 -20.70689297 310.07254887 C-20.70659579 309.34209729 -20.70629862 308.61164571 -20.70599244 307.85905924 C-20.70354342 301.92700276 -20.70093188 295.99494635 -20.69830831 290.06288995 C-20.68820498 266.92146146 -20.69656188 243.78010551 -20.71980286 220.63868713 C-20.74586373 194.64731386 -20.75872656 168.65598428 -20.75161511 142.66459745 C-20.75089903 139.89427182 -20.75022464 137.12394618 -20.74957466 134.35362053 C-20.74940485 133.67148123 -20.74923504 132.98934193 -20.74906009 132.28653175 C-20.74675526 121.98083071 -20.75474281 111.67517018 -20.76786613 101.36947823 C-20.78276068 89.65186173 -20.78326764 77.93432398 -20.76579522 66.21670372 C-20.75725521 60.23524998 -20.75520876 54.25397791 -20.77044678 48.27253342 C-20.78421453 42.80059889 -20.7796331 37.32900303 -20.76020754 31.8570885 C-20.75642282 29.87396903 -20.75944 27.89082293 -20.76981919 25.90772701 C-20.7828984 23.21821908 -20.77148716 20.52989581 -20.75382137 17.8404398 C-20.76347189 17.06508447 -20.7731224 16.28972914 -20.78306535 15.49087819 C-20.71295231 10.31523147 -19.49510295 7.40300907 -16.25325012 3.40113831 C-11.62284584 -0.78415325 -5.8950005 -0.02542365 0 0 Z " fill="#E0E5EF" transform="translate(81.25325012207031,-0.4011383056640625)"/>
<path d="M0 0 C0.76381286 -0.00256327 1.52762573 -0.00512655 2.31458443 -0.0077675 C4.86970345 -0.01270235 7.42422939 0.0037823 9.97929382 0.02018738 C11.8125202 0.02103372 13.6457476 0.02055838 15.47897339 0.01885986 C20.45381432 0.01799875 25.42843847 0.03564341 30.403229 0.05658174 C35.60290444 0.07532909 40.80258479 0.07709745 46.00228882 0.08065796 C55.84780917 0.08998412 65.69322964 0.11460567 75.538706 0.14470643 C88.84349381 0.18450087 102.14830891 0.2007007 115.45314121 0.21821308 C136.41465167 0.24642631 157.37595135 0.30619211 178.33744812 0.36076355 C178.33744812 50.52076355 178.33744812 100.68076355 178.33744812 152.36076355 C116.77494812 152.61076355 116.77494812 152.61076355 97.35087585 152.65861511 C91.59494604 152.6918433 91.59494604 152.6918433 85.83905029 152.73033142 C82.60767791 152.74875635 79.37661203 152.75259188 76.14519829 152.75182748 C72.93499213 152.7565998 69.72502151 152.78773676 66.51493835 152.81486511 C65.37844817 152.80984104 64.24195799 152.80481697 63.07102871 152.79964066 C56.62259686 152.88497962 52.55609839 153.46096249 47.33744812 157.36076355 C44.10978332 161.95588042 43.89521079 166.33873624 43.93901062 171.7943573 C43.93470535 172.98860069 43.93470535 172.98860069 43.93031311 174.20697021 C43.92828009 175.88364883 43.93375647 177.56035158 43.94633484 179.23698425 C43.96237886 181.78725388 43.94647201 184.33593382 43.92729187 186.88615417 C43.92927485 188.52222534 43.93311967 190.15829553 43.93901062 191.7943573 C43.93293793 192.54873581 43.92686523 193.30311432 43.92060852 194.08035278 C43.99282603 199.58553457 44.8320274 204.82997148 48.88041687 208.9193573 C53.60579667 211.44479781 56.97863053 211.95618773 62.33744812 211.36076355 C67.05581496 209.81822055 69.11914699 207.81384491 71.49467468 203.47575378 C73.0518023 199.5680491 73.01668336 195.58285947 73.08744812 191.42326355 C73.16994812 188.43263855 73.25244812 185.44201355 73.33744812 182.36076355 C83.23744812 182.36076355 93.13744812 182.36076355 103.33744812 182.36076355 C103.33744812 212.06076355 103.33744812 241.76076355 103.33744812 272.36076355 C93.93244812 272.85576355 93.93244812 272.85576355 84.33744812 273.36076355 C77.20965964 277.04838572 77.20965964 277.04838572 74.33744812 283.36076355 C73.74525285 288.78922022 74.5765037 292.64043922 77.33744812 297.36076355 C83.9381804 302.7567396 91.58040745 301.92516651 99.68510437 301.8568573 C101.18530345 301.85701247 102.68550292 301.8585045 104.18569946 301.86126709 C107.32020425 301.86264712 110.45424925 301.85015887 113.58866882 301.82731628 C117.59569689 301.79890776 121.60196322 301.80168072 125.60904789 301.81440639 C128.7035568 301.82137795 131.79789123 301.81355796 134.89237785 301.80114937 C136.36947904 301.79665091 137.84659905 301.79628396 139.32370186 301.80021477 C141.3912528 301.80314232 143.45777211 301.78654973 145.52519226 301.76481628 C146.69876785 301.7594133 147.87234344 301.75401031 149.08148193 301.7484436 C152.78434642 301.30755245 155.17013842 300.30810351 158.33744812 298.36076355 C161.5258859 294.08154442 163.03959148 290.71895156 162.71635437 285.3490448 C162.05206599 281.8632429 160.87607569 278.87394121 158.33744812 276.36076355 C149.84310226 272.24759121 149.84310226 272.24759121 133.33744812 272.36076355 C133.33744812 242.66076355 133.33744812 212.96076355 133.33744812 182.36076355 C143.23744812 182.36076355 153.13744812 182.36076355 163.33744812 182.36076355 C163.64994812 190.92326355 163.64994812 190.92326355 163.72538757 193.57780457 C163.96925844 198.83200532 164.80202994 202.72237002 167.33744812 207.36076355 C170.47706951 210.20172026 174.26362796 211.34230851 178.33744812 212.36076355 C178.33744812 251.96076355 178.33744812 291.56076355 178.33744812 332.36076355 C165.03238953 332.39943542 165.03238953 332.39943542 151.45854187 332.43888855 C145.12473036 332.46725544 138.79096958 332.49811864 132.45719242 332.53258705 C124.25280746 332.5769028 116.04853322 332.61533265 107.84403992 332.63175964 C101.34795707 332.64478491 94.85210621 332.67177162 88.35615402 332.71537662 C84.91798531 332.73797215 81.4801025 332.75367541 78.04185295 332.7526474 C74.19930961 332.75176053 70.35734879 332.78204995 66.51493835 332.81486511 C65.38061371 332.80983475 64.24628906 332.80480438 63.07759094 332.79962158 C56.62792535 332.88483989 52.55420072 333.45428749 47.33744812 337.36076355 C44.34332781 341.70706723 43.7883516 345.14434659 44.33744812 350.36076355 C45.58817384 354.70151751 46.58264372 356.78729375 50.19744873 359.53367615 C55.36566977 362.29701142 60.78627801 361.93206675 66.51493835 361.90666199 C67.72540329 361.91699966 68.93586823 361.92733734 70.18301392 361.93798828 C73.48441863 361.96234406 76.78497837 361.96925549 80.08641315 361.96826839 C83.54314662 361.97140713 86.99971334 361.99704518 90.45635986 362.02024841 C96.99391215 362.06073878 103.53136487 362.08113264 110.06902319 362.09422231 C117.51532396 362.11011606 124.96145586 362.14854158 132.40765846 362.18881559 C147.71756392 362.27111925 163.02736022 362.32229683 178.33744812 362.36076355 C178.33744812 372.26076355 178.33744812 382.16076355 178.33744812 392.36076355 C172.7579425 392.3747821 172.7579425 392.3747821 167.0657196 392.38908386 C154.77616066 392.42285045 142.4867784 392.47819692 130.19735622 392.54466629 C122.74624722 392.58443998 115.29524357 392.61684088 107.84403992 392.63175964 C101.34795707 392.64478491 94.85210621 392.67177162 88.35615402 392.71537662 C84.91798531 392.73797215 81.4801025 392.75367541 78.04185295 392.7526474 C74.19930961 392.75176053 70.35734879 392.78204995 66.51493835 392.81486511 C65.38061371 392.80983475 64.24628906 392.80480438 63.07759094 392.79962158 C56.62792535 392.88483989 52.55420072 393.45428749 47.33744812 397.36076355 C44.34332781 401.70706723 43.7883516 405.14434659 44.33744812 410.36076355 C45.58817384 414.70151751 46.58264372 416.78729375 50.19744873 419.53367615 C55.36566977 422.29701142 60.78627801 421.93206675 66.51493835 421.90666199 C67.72540329 421.91699966 68.93586823 421.92733734 70.18301392 421.93798828 C73.48441863 421.96234406 76.78497837 421.96925549 80.08641315 421.96826839 C83.54314662 421.97140713 86.99971334 421.99704518 90.45635986 422.02024841 C96.99391215 422.06073878 103.53136487 422.08113264 110.06902319 422.09422231 C118.2464837 422.11167668 126.42376961 422.15610617 134.60112 422.2006073 C149.17989125 422.27982635 163.75841988 422.31838881 178.33744812 422.36076355 C178.33744812 452.06076355 178.33744812 481.76076355 178.33744812 512.36076355 C131.93522139 512.52197569 131.93522139 512.52197569 112.51322937 512.55607605 C99.09471025 512.5798247 85.67629148 512.60776634 72.25785828 512.66252136 C62.48594101 512.70237749 52.71410504 512.72819363 42.94210875 512.73711753 C37.76739351 512.74233432 32.59291085 512.75460368 27.41827011 512.78368378 C22.547681 512.81083342 17.67742029 512.81920941 12.8067627 512.81319427 C11.01932618 512.81429471 9.23187868 512.82225127 7.4445076 512.83758545 C5.00268706 512.85750669 2.56210408 512.85269552 0.12025452 512.84178162 C-0.93910448 512.85925866 -0.93910448 512.85925866 -2.01986468 512.87708879 C-7.01948944 512.81674552 -9.86349112 511.57100975 -13.66255188 508.36076355 C-16.95672695 504.10937556 -17.08780308 500.23388486 -17.04286861 495.0473032 C-17.04985849 493.79026084 -17.04985849 493.79026084 -17.05698958 492.50782368 C-17.06898353 489.68696312 -17.0595272 486.8665803 -17.05023193 484.04571533 C-17.05440292 482.00802184 -17.05987914 479.97033067 -17.06655174 477.93264383 C-17.08105587 472.32310078 -17.07674613 466.71370403 -17.06938493 461.1041528 C-17.06466784 455.05838382 -17.07715014 449.01264716 -17.08740234 442.96688843 C-17.10362818 431.80420635 -17.10602972 420.6415698 -17.10109735 409.47888216 C-17.09654291 399.16661448 -17.09713594 388.85436421 -17.1029377 378.54209709 C-17.10369456 377.159654 -17.10445054 375.7772109 -17.10520564 374.3947678 C-17.10635082 372.31163661 -17.10750069 370.22850543 -17.10866489 368.14537425 C-17.1193724 348.77430619 -17.12409254 329.40324395 -17.11619473 310.03217411 C-17.11589755 309.30172253 -17.11560038 308.57127095 -17.1152942 307.81868448 C-17.11284518 301.886628 -17.11023364 295.9545716 -17.10761007 290.0225152 C-17.09750674 266.8810867 -17.10586364 243.73973076 -17.12910461 220.59831238 C-17.15516548 194.60693911 -17.16802831 168.61560952 -17.16091686 142.6242227 C-17.16020079 139.85389706 -17.1595264 137.08357142 -17.15887642 134.31324577 C-17.15870661 133.63110648 -17.1585368 132.94896718 -17.15836185 132.24615699 C-17.15605702 121.94045596 -17.16404457 111.63479542 -17.17716789 101.32910347 C-17.19206243 89.61148697 -17.1925694 77.89394922 -17.17509698 66.17632896 C-17.16655696 60.19487522 -17.16451052 54.21360315 -17.17974854 48.23215866 C-17.19351629 42.76022414 -17.18893486 37.28862828 -17.1695093 31.81671374 C-17.16572457 29.83359427 -17.16874175 27.85044818 -17.17912095 25.86735225 C-17.19220016 23.17784432 -17.18078892 20.48952105 -17.16312313 17.80006504 C-17.17277364 17.02470971 -17.18242415 16.24935438 -17.19236711 15.45050344 C-17.12228032 10.2767952 -15.91790005 7.352832 -12.66255188 3.36076355 C-8.66640847 0.10124354 -4.97426035 -0.0612953 0 0 Z " fill="#F2F4F8" transform="translate(77.66255187988281,-0.3607635498046875)"/>
<path d="M0 0 C1.84031296 -0.01051392 1.84031296 -0.01051392 3.71780396 -0.02124023 C7.0673435 -0.03578588 10.4158891 -0.03243758 13.76537204 -0.01972389 C17.28101806 -0.00955479 20.79662332 -0.01900058 24.31227112 -0.02526855 C30.21590748 -0.03253461 36.11934334 -0.02298582 42.02294922 -0.00390625 C48.83329812 0.01785062 55.64316773 0.01081592 62.45350498 -0.01121187 C68.31533528 -0.02940785 74.17702191 -0.0319035 80.03887135 -0.0214572 C83.53342952 -0.01524389 87.027763 -0.01432626 90.52230644 -0.02760315 C94.421308 -0.04138326 98.31977992 -0.02224349 102.21875 0 C103.94042641 -0.01214539 103.94042641 -0.01214539 105.69688416 -0.02453613 C112.10083851 0.04300341 117.43083169 0.56355032 122.67407227 4.51757812 C126.72217543 9.26911864 127.27107509 13.93852818 127.20532227 20.01367188 C127.20914917 20.80604752 127.21297607 21.59842316 127.21691895 22.41481018 C127.2196262 24.08132201 127.21234849 25.74787721 127.19555664 27.41430664 C127.1741562 29.9451516 127.19538158 32.47314927 127.22094727 35.00390625 C127.21830322 36.63216764 127.21317665 38.26042728 127.20532227 39.88867188 C127.21341919 40.63475204 127.22151611 41.38083221 127.2298584 42.14952087 C127.13393041 47.60887326 125.81145151 51.99803078 122.67407227 56.51757812 C118.83397861 59.83394822 114.90848585 61.26520927 109.72875977 60.96289062 C105.81578169 60.11483074 102.48934488 58.3578199 99.67407227 55.51757812 C96.57994282 49.94814513 96.29079899 45.3592604 96.48657227 39.08007812 C96.54844727 36.25445312 96.61032227 33.42882812 96.67407227 30.51757812 C86.77407227 30.51757812 76.87407227 30.51757812 66.67407227 30.51757812 C66.67407227 60.21757812 66.67407227 89.91757813 66.67407227 120.51757812 C72.61407227 120.51757812 78.55407227 120.51757812 84.67407227 120.51757812 C93.92651982 125.1438019 93.92651982 125.1438019 96.04516602 129.59960938 C97.48706792 133.99696238 97.52341473 137.50084155 95.75610352 141.69726562 C93.07816351 146.42915962 90.75482823 148.3502597 85.67407227 150.51757812 C82.42483521 150.9119873 82.42483521 150.9119873 78.87768555 150.9375 C78.22641693 150.94596954 77.57514832 150.95443909 76.90414429 150.96316528 C74.76735495 150.9864193 72.63129067 150.98756024 70.49438477 150.98632812 C68.99754555 150.99343726 67.50070903 151.00113735 66.00387573 151.00939941 C62.87189148 151.02281792 59.74015918 151.02442518 56.6081543 151.01855469 C52.61113466 151.01266387 48.61533193 151.04323494 44.61854744 151.08367157 C41.52824487 151.10962949 38.43823209 151.1124187 35.34783554 151.10877991 C33.87514058 151.11046392 32.40243119 151.12003687 30.9298439 151.13792419 C17.11305542 151.28728661 17.11305542 151.28728661 11.0763855 146.92004395 C7.63684461 143.4801288 6.82103549 139.6932839 6.23657227 135.01757812 C6.76093968 130.82263881 7.76875886 127.64133615 10.67407227 124.51757812 C17.67407227 120.51757812 17.67407227 120.51757812 36.67407227 120.51757812 C36.67407227 90.81757813 36.67407227 61.11757812 36.67407227 30.51757812 C26.77407227 30.51757812 16.87407227 30.51757812 6.67407227 30.51757812 C6.87027009 36.41137871 6.87027009 36.41137871 7.12451172 42.30273438 C7.2282871 48.548004 5.74602042 52.73670087 1.67407227 57.51757812 C-2.10639572 60.20591092 -5.55904591 61.13420631 -10.23608398 60.92773438 C-14.17720725 60.15424289 -17.50560243 58.3629174 -20.32592773 55.51757812 C-23.07414332 50.17415526 -23.78281519 45.94727816 -23.75952148 39.98632812 C-23.76476334 39.19158081 -23.77000519 38.3968335 -23.77540588 37.57800293 C-23.78179389 35.90731976 -23.7805311 34.23659143 -23.77197266 32.56591797 C-23.76345009 30.02424431 -23.79228628 27.48481236 -23.82397461 24.94335938 C-23.82558673 23.31184962 -23.82500887 21.68033594 -23.82202148 20.04882812 C-23.83325546 19.29758667 -23.84448944 18.54634521 -23.85606384 17.77233887 C-23.78647779 12.44898709 -22.71162126 8.67711719 -19.32592773 4.51757812 C-13.11805304 -0.15702592 -7.59291357 -0.05346911 0 0 Z " fill="#73D3E6" transform="translate(144.325927734375,151.482421875)"/>
<path d="M0 0 C1.52170285 -0.0083016 1.52170285 -0.0083016 3.07414716 -0.0167709 C6.4658963 -0.03035991 9.85690737 -0.01541712 13.24864197 -0.00050354 C15.68326123 -0.00428731 18.11787835 -0.00978782 20.55249023 -0.01687622 C26.47389803 -0.0293901 32.39511108 -0.0232668 38.31649668 -0.00820064 C45.21483614 0.00868156 52.11312271 0.00544646 59.01147645 0.00170528 C71.32071797 -0.00416973 83.62985711 0.00998471 95.93907166 0.03465271 C107.87888933 0.05857767 119.81857025 0.06565449 131.75840759 0.05516052 C144.76680724 0.04374784 157.77514368 0.04182517 170.78354257 0.05625862 C172.1709359 0.05778443 173.55832924 0.05930479 174.94572258 0.06081963 C175.96960782 0.06195635 175.96960782 0.06195635 177.01417761 0.06311603 C181.8209752 0.06785575 186.62774454 0.06600968 191.4345417 0.06175423 C197.90488915 0.05630947 204.37508924 0.0670823 210.84540367 0.08870888 C213.22140489 0.09427801 215.59742431 0.09474091 217.97342682 0.08975601 C221.21385946 0.0838096 224.45371149 0.0962966 227.6940918 0.11352539 C228.63679509 0.10751535 229.57949838 0.1015053 230.55076844 0.09531313 C235.71246289 0.1453003 239.32739299 0.60139427 243.78355408 3.50120544 C247.96116443 8.13044935 249.15539292 10.99782921 249.05699158 17.11839294 C248.61279564 20.98924322 247.25672823 23.54007713 244.78355408 26.50120544 C239.01939957 30.64470304 234.56519963 31.07715998 227.58056641 31.01586914 C226.06098026 31.02628743 226.06098026 31.02628743 224.5106954 31.0369162 C221.12363969 31.05517998 217.73728488 31.04492321 214.35020447 31.03465271 C211.91882809 31.04171146 209.4874561 31.05045628 207.05609131 31.0607605 C201.14205078 31.080932 195.2281877 31.08228071 189.3141349 31.07413495 C184.50599901 31.06782815 179.69791917 31.0689782 174.88978386 31.07540703 C174.20475248 31.07630868 173.51972111 31.07721034 172.81393121 31.07813932 C171.42217178 31.07999057 170.03041237 31.08185313 168.63865297 31.08372688 C155.59531773 31.10029582 142.55209073 31.09159396 129.50876199 31.0747413 C117.58377541 31.06004597 105.65904083 31.07467185 93.7340867 31.10351146 C81.4799445 31.13292576 69.22591852 31.14387178 56.97174257 31.13432926 C55.58487509 31.13330674 54.19800758 31.13231213 52.81114006 31.13134575 C51.78767696 31.13063116 51.78767696 31.13063116 50.74353783 31.12990214 C45.9436558 31.12774064 41.14388413 31.13752799 36.34402657 31.15211678 C29.87853461 31.17149452 23.41339657 31.16452584 16.94791985 31.13991737 C14.57597971 31.13490666 12.20400393 31.13840589 9.83209229 31.15106583 C6.59203113 31.16699048 3.35351379 31.15204911 0.11352539 31.12939453 C-0.82335222 31.14123026 -1.76022982 31.15306599 -2.72549766 31.16526037 C-8.97034526 31.07665466 -13.47369889 29.70169254 -18.21644592 25.50120544 C-21.00181815 20.80088981 -21.89435278 16.92446031 -21.21644592 11.50120544 C-19.45304453 6.51539795 -17.03069274 3.96861764 -12.34692872 1.36619747 C-8.33817296 -0.26138749 -4.27100694 -0.04361961 0 0 Z " fill="#404B80" transform="translate(142.21644592285156,391.49879455566406)"/>
<path d="M0 0 C1.52170285 -0.0083016 1.52170285 -0.0083016 3.07414716 -0.0167709 C6.4658963 -0.03035991 9.85690737 -0.01541712 13.24864197 -0.00050354 C15.68326123 -0.00428731 18.11787835 -0.00978782 20.55249023 -0.01687622 C26.47389803 -0.0293901 32.39511108 -0.0232668 38.31649668 -0.00820064 C45.21483614 0.00868156 52.11312271 0.00544646 59.01147645 0.00170528 C71.32071797 -0.00416973 83.62985711 0.00998471 95.93907166 0.03465271 C107.87888933 0.05857767 119.81857025 0.06565449 131.75840759 0.05516052 C144.76680724 0.04374784 157.77514368 0.04182517 170.78354257 0.05625862 C172.1709359 0.05778443 173.55832924 0.05930479 174.94572258 0.06081963 C175.96960782 0.06195635 175.96960782 0.06195635 177.01417761 0.06311603 C181.8209752 0.06785575 186.62774454 0.06600968 191.4345417 0.06175423 C197.90488915 0.05630947 204.37508924 0.0670823 210.84540367 0.08870888 C213.22140489 0.09427801 215.59742431 0.09474091 217.97342682 0.08975601 C221.21385946 0.0838096 224.45371149 0.0962966 227.6940918 0.11352539 C228.63679509 0.10751535 229.57949838 0.1015053 230.55076844 0.09531313 C235.71246289 0.1453003 239.32739299 0.60139427 243.78355408 3.50120544 C247.96116443 8.13044935 249.15539292 10.99782921 249.05699158 17.11839294 C248.61279564 20.98924322 247.25672823 23.54007713 244.78355408 26.50120544 C239.01939957 30.64470304 234.56519963 31.07715998 227.58056641 31.01586914 C226.06098026 31.02628743 226.06098026 31.02628743 224.5106954 31.0369162 C221.12363969 31.05517998 217.73728488 31.04492321 214.35020447 31.03465271 C211.91882809 31.04171146 209.4874561 31.05045628 207.05609131 31.0607605 C201.14205078 31.080932 195.2281877 31.08228071 189.3141349 31.07413495 C184.50599901 31.06782815 179.69791917 31.0689782 174.88978386 31.07540703 C174.20475248 31.07630868 173.51972111 31.07721034 172.81393121 31.07813932 C171.42217178 31.07999057 170.03041237 31.08185313 168.63865297 31.08372688 C155.59531773 31.10029582 142.55209073 31.09159396 129.50876199 31.0747413 C117.58377541 31.06004597 105.65904083 31.07467185 93.7340867 31.10351146 C81.4799445 31.13292576 69.22591852 31.14387178 56.97174257 31.13432926 C55.58487509 31.13330674 54.19800758 31.13231213 52.81114006 31.13134575 C51.78767696 31.13063116 51.78767696 31.13063116 50.74353783 31.12990214 C45.9436558 31.12774064 41.14388413 31.13752799 36.34402657 31.15211678 C29.87853461 31.17149452 23.41339657 31.16452584 16.94791985 31.13991737 C14.57597971 31.13490666 12.20400393 31.13840589 9.83209229 31.15106583 C6.59203113 31.16699048 3.35351379 31.15204911 0.11352539 31.12939453 C-0.82335222 31.14123026 -1.76022982 31.15306599 -2.72549766 31.16526037 C-8.97034526 31.07665466 -13.47369889 29.70169254 -18.21644592 25.50120544 C-21.00181815 20.80088981 -21.89435278 16.92446031 -21.21644592 11.50120544 C-19.45304453 6.51539795 -17.03069274 3.96861764 -12.34692872 1.36619747 C-8.33817296 -0.26138749 -4.27100694 -0.04361961 0 0 Z " fill="#404B80" transform="translate(142.21644592285156,331.49879455566406)"/>
<path d="M0 0 C4.1805958 -0.62708937 6.49538326 0.0288422 9.81632996 2.45750427 C14.47522691 6.2363381 18.71159891 10.43113064 22.9387207 14.67993164 C24.22071602 15.95667 24.22071602 15.95667 25.52861023 17.25920105 C27.85021537 19.57355907 30.16732331 21.89229834 32.48211694 24.21346593 C34.91468902 26.65113683 37.35217717 29.08388445 39.78886414 31.5174408 C43.87496874 35.59991907 47.95686561 39.68656876 52.03637695 43.77563477 C56.74628329 48.49644497 61.46338052 53.20997792 66.18423396 57.91983896 C70.24924743 61.97576756 74.31033953 66.03559159 78.36819714 70.09867948 C80.78676823 72.52036086 83.20665205 74.94068892 85.63009071 77.35750008 C88.32767893 80.05001284 91.01877902 82.74884726 93.70825195 85.44946289 C94.50776276 86.24492523 95.30727356 87.04038757 96.13101196 87.85995483 C96.86402023 88.59860275 97.5970285 89.33725067 98.35224915 90.09828186 C98.98803548 90.73482224 99.62382181 91.37136263 100.2788744 92.02719212 C103.17836091 95.35067405 104.93542599 97.8591925 105.1875 102.3125 C105.0946875 103.6428125 105.0946875 103.6428125 105 105 C92.86488297 105.0927545 80.72985053 105.16379291 68.59445095 105.20724869 C62.95924275 105.22810722 57.32427742 105.25639364 51.68920898 105.30175781 C46.24919821 105.34527675 40.80942078 105.36915015 35.36924934 105.37950897 C33.29563792 105.38688943 31.22203901 105.40130179 29.14852715 105.42292023 C26.23993385 105.45203421 23.33229997 105.45595261 20.42358398 105.45410156 C19.14288025 105.47567322 19.14288025 105.47567322 17.83630371 105.49768066 C12.06207676 105.45801997 8.63858367 104.53521244 4 101 C-0.13991537 95.56798024 -0.56682624 91.26885161 -0.45410156 84.57641602 C-0.45468567 83.6585582 -0.45526978 82.74070038 -0.45587158 81.79502869 C-0.45309939 78.78092772 -0.4220482 75.76783307 -0.390625 72.75390625 C-0.38315954 70.65641317 -0.37746805 68.55891309 -0.37347412 66.46141052 C-0.3582419 60.95558225 -0.3189806 55.45017974 -0.2746582 49.94451904 C-0.23365359 44.32049315 -0.21545201 38.69639809 -0.1953125 33.07226562 C-0.15248423 22.04799059 -0.08426193 11.02403078 0 0 Z " fill="#72D3E5" transform="translate(346,0)"/>
<path d="M0 0 C1.21046494 -0.00058411 2.42092987 -0.00116821 3.66807556 -0.00177002 C6.96960641 0.00053099 10.27012328 0.02051969 13.57147479 0.04852581 C17.02809299 0.07361725 20.48472629 0.07588753 23.94142151 0.08062744 C30.4791051 0.09303462 37.01651951 0.12582524 43.55408484 0.1660254 C51.00025843 0.2108138 58.44644523 0.23274785 65.8927201 0.25280714 C81.20283218 0.29456028 96.51257371 0.3678839 111.82250977 0.45410156 C111.82250977 10.35410156 111.82250977 20.25410156 111.82250977 30.45410156 C95.7930654 30.5670976 79.76396247 30.65914854 63.73423004 30.71316242 C56.29085502 30.73891189 48.84774555 30.77399946 41.40454102 30.83129883 C34.91479353 30.88123434 28.42523844 30.91341626 21.93530416 30.92454404 C18.50084196 30.93104585 15.06692999 30.94625716 11.63264465 30.98275185 C7.79260741 31.01908933 3.95370712 31.02404457 0.11352539 31.02172852 C-1.01720398 31.0397049 -2.14793335 31.05768127 -3.31292725 31.07620239 C-10.0715183 31.03214315 -15.09193567 30.1705676 -20.17749023 25.45410156 C-22.96286246 20.75378593 -23.85539709 16.87735643 -23.17749023 11.45410156 C-21.44510069 6.55597636 -19.03944715 3.87559469 -14.42889214 1.31621552 C-9.80062351 -0.45605578 -4.88999497 -0.06199594 0 0 Z " fill="#4D6799" transform="translate(144.177490234375,391.5458984375)"/>
<path d="M0 0 C1.21046494 -0.00058411 2.42092987 -0.00116821 3.66807556 -0.00177002 C6.96960641 0.00053099 10.27012328 0.02051969 13.57147479 0.04852581 C17.02809299 0.07361725 20.48472629 0.07588753 23.94142151 0.08062744 C30.4791051 0.09303462 37.01651951 0.12582524 43.55408484 0.1660254 C51.00025843 0.2108138 58.44644523 0.23274785 65.8927201 0.25280714 C81.20283218 0.29456028 96.51257371 0.3678839 111.82250977 0.45410156 C111.82250977 10.35410156 111.82250977 20.25410156 111.82250977 30.45410156 C95.7930654 30.5670976 79.76396247 30.65914854 63.73423004 30.71316242 C56.29085502 30.73891189 48.84774555 30.77399946 41.40454102 30.83129883 C34.91479353 30.88123434 28.42523844 30.91341626 21.93530416 30.92454404 C18.50084196 30.93104585 15.06692999 30.94625716 11.63264465 30.98275185 C7.79260741 31.01908933 3.95370712 31.02404457 0.11352539 31.02172852 C-1.01720398 31.0397049 -2.14793335 31.05768127 -3.31292725 31.07620239 C-10.0715183 31.03214315 -15.09193567 30.1705676 -20.17749023 25.45410156 C-22.96286246 20.75378593 -23.85539709 16.87735643 -23.17749023 11.45410156 C-21.44510069 6.55597636 -19.03944715 3.87559469 -14.42889214 1.31621552 C-9.80062351 -0.45605578 -4.88999497 -0.06199594 0 0 Z " fill="#4D6799" transform="translate(144.177490234375,331.5458984375)"/>
<path d="M0 0 C1.47298946 -0.00269889 2.94597717 -0.00658461 4.41896057 -0.01159668 C7.49798637 -0.01747504 10.5765462 -0.00898453 13.65551758 0.00976562 C17.58402153 0.03253485 21.51143097 0.0194356 25.43989468 -0.00452423 C28.47960003 -0.01904502 31.51905005 -0.0143474 34.5587635 -0.00401306 C36.00630895 -0.00136201 37.45387827 -0.00455793 38.9013958 -0.01393127 C46.92695097 -0.05449884 53.17647126 -0.04634743 59.94140625 4.53125 C63.23372398 8.41349815 64.69106584 12.26208236 64.38671875 17.4765625 C63.53865886 21.38954057 61.78164802 24.71597738 58.94140625 27.53125 C52.04730385 31.62215875 44.64993436 30.98600709 36.84765625 30.96484375 C35.37227133 30.96941114 33.89688854 30.97471836 32.42150879 30.98072815 C29.33837202 30.98963398 26.25549464 30.98726461 23.17236328 30.97729492 C19.23483314 30.96579863 15.29819896 30.98603864 11.36078644 31.01521206 C8.31685772 31.03361623 5.27314218 31.03327347 2.22917175 31.02757454 C0.77799725 31.02742189 -0.67319222 31.03341942 -2.12431335 31.04586601 C-16.18663869 31.14952024 -16.18663869 31.14952024 -22.05859375 26.53125 C-24.89755089 23.08038731 -25.94396899 19.34795139 -26.55859375 14.96875 C-25.72974224 9.27039588 -23.9518558 6.00775078 -19.40234375 2.4597168 C-13.48338939 -0.82632355 -6.5746851 -0.04250529 0 0 Z " fill="#404B80" transform="translate(327.05859375,271.46875)"/>
<path d="M0 0 C1.47298946 -0.00269889 2.94597717 -0.00658461 4.41896057 -0.01159668 C7.49798637 -0.01747504 10.5765462 -0.00898453 13.65551758 0.00976562 C17.58402153 0.03253485 21.51143097 0.0194356 25.43989468 -0.00452423 C28.47960003 -0.01904502 31.51905005 -0.0143474 34.5587635 -0.00401306 C36.00630895 -0.00136201 37.45387827 -0.00455793 38.9013958 -0.01393127 C46.92695097 -0.05449884 53.17647126 -0.04634743 59.94140625 4.53125 C63.23372398 8.41349815 64.69106584 12.26208236 64.38671875 17.4765625 C63.53865886 21.38954057 61.78164802 24.71597738 58.94140625 27.53125 C52.04730385 31.62215875 44.64993436 30.98600709 36.84765625 30.96484375 C35.37227133 30.96941114 33.89688854 30.97471836 32.42150879 30.98072815 C29.33837202 30.98963398 26.25549464 30.98726461 23.17236328 30.97729492 C19.23483314 30.96579863 15.29819896 30.98603864 11.36078644 31.01521206 C8.31685772 31.03361623 5.27314218 31.03327347 2.22917175 31.02757454 C0.77799725 31.02742189 -0.67319222 31.03341942 -2.12431335 31.04586601 C-16.18663869 31.14952024 -16.18663869 31.14952024 -22.05859375 26.53125 C-24.89755089 23.08038731 -25.94396899 19.34795139 -26.55859375 14.96875 C-25.72974224 9.27039588 -23.9518558 6.00775078 -19.40234375 2.4597168 C-13.48338939 -0.82632355 -6.5746851 -0.04250529 0 0 Z " fill="#404B80" transform="translate(327.05859375,211.46875)"/>
<path d="M0 0 C1.47298946 -0.00269889 2.94597717 -0.00658461 4.41896057 -0.01159668 C7.49798637 -0.01747504 10.5765462 -0.00898453 13.65551758 0.00976562 C17.58402153 0.03253485 21.51143097 0.0194356 25.43989468 -0.00452423 C28.47960003 -0.01904502 31.51905005 -0.0143474 34.5587635 -0.00401306 C36.00630895 -0.00136201 37.45387827 -0.00455793 38.9013958 -0.01393127 C46.92695097 -0.05449884 53.17647126 -0.04634743 59.94140625 4.53125 C63.23372398 8.41349815 64.69106584 12.26208236 64.38671875 17.4765625 C63.53865886 21.38954057 61.78164802 24.71597738 58.94140625 27.53125 C52.04730385 31.62215875 44.64993436 30.98600709 36.84765625 30.96484375 C35.37227133 30.96941114 33.89688854 30.97471836 32.42150879 30.98072815 C29.33837202 30.98963398 26.25549464 30.98726461 23.17236328 30.97729492 C19.23483314 30.96579863 15.29819896 30.98603864 11.36078644 31.01521206 C8.31685772 31.03361623 5.27314218 31.03327347 2.22917175 31.02757454 C0.77799725 31.02742189 -0.67319222 31.03341942 -2.12431335 31.04586601 C-16.18663869 31.14952024 -16.18663869 31.14952024 -22.05859375 26.53125 C-24.89755089 23.08038731 -25.94396899 19.34795139 -26.55859375 14.96875 C-25.72974224 9.27039588 -23.9518558 6.00775078 -19.40234375 2.4597168 C-13.48338939 -0.82632355 -6.5746851 -0.04250529 0 0 Z " fill="#404B80" transform="translate(327.05859375,151.46875)"/>
</svg>
